<?xml version="1.0" encoding="UTF-8"?>
<svg id="Layer_1" xmlns="http://www.w3.org/2000/svg" viewBox="0 0 644.5 644.8">
  <path d="M329.33.21c113.35,2.38,218.14,100.05,210.32,227.12-7.85,127.43-121.96,211.36-229.17,205.04-116.01-6.85-211.22-112.31-205.8-227.59C110.29,85.62,216.14-4.89,329.33.21ZM327.17,422.32c53.92-2.13,99.22-22.27,138.45-59.01-9.4-8.64-18.13-16.66-26.53-24.38-7.9,6.06-15.09,11.58-22.75,17.46-4.11-14.01,9.21-15.89,13.99-23.62-6.5,2.56-11.23,2.18-14.96-4.2-2.92-5.01-6.98-1.44-9.59.85-1.35,1.19-1.13,4.41-1.23,6.72-.13,3.14,1.14,6.75-.01,9.35-2.73,6.17-5.52,12.92-10.18,17.49-5.66,5.56-10.11,12.83-19.61,14.38-15.77,2.58-31.28,6.76-47.58,10.41v34.55ZM310.77,189.45c-16.29,21.42-32.24,42.39-48.72,64.06-12.51-15.96-24.06-30.7-36.14-46.11-6.49,7.17-11.94,13.58-17.83,19.55-3.31,3.35-2.84,5.61,0,8.96,12.58,14.8,24.87,29.84,37.3,44.76,5.97,7.16,12.02,14.26,18.3,21.71,24.39-30.39,48.17-60.02,72.15-89.9-8.55-7.85-16.57-15.22-25.07-23.02ZM115.05,218.96c1.93,53.71,21.88,98.58,57.98,137.42,7.14-6.36,13.65-12.05,20.02-17.89,7.67-7.01,7.58-7.04.93-14.64-18.34-20.96-31.06-44.88-36.95-72.15-2.3-10.63-3.41-21.52-5.13-32.75h-36.86ZM445.05,332.1c9.08,8.22,17.85,16.17,26.93,24.4,36.92-39.14,55.58-84.5,57.48-137.34h-37.03c-2.21,43.47-17.76,80.86-47.38,112.94ZM151.85,208.87c1.94-42.5,17.36-79,47.14-109.07-8.86-8.81-17.44-17.33-26.39-26.23-36.39,37.61-55.54,82.41-57.53,135.3h36.77ZM445.65,99.6c29.33,30.68,44.81,66.96,46.93,109.12h36.99c-1.92-52.94-21.86-97.24-57.16-135.14-9.22,8.96-17.77,17.27-26.77,26.02ZM317.18,9.98c-53.08,1.92-98.29,20.8-135.65,55.12,8.73,9.52,16.63,18.14,24.81,27.06,31.69-28.34,68.07-44.45,110.84-45.74V9.98ZM317.2,386.06c-43.26-1.6-80.14-17.48-110.88-48.05-9.31,8.64-17.99,16.7-27.22,25.26,39.69,36.72,84.95,56.39,138.1,58.88v-36.08ZM326.78,9.86c0,11.48.16,21.66-.07,31.83-.11,4.88,2.68,5.16,6.34,5.28,22.28.74,43.34,6.49,63.11,16.6,11.01,5.63,21.53,12.22,32.24,18.36,5.63-13.03,13.09-21.44,18.87-20.09,5.46,1.28,12.89,1.07,11.32,11.81,3.06-2.68,4.82-4.22,7.23-6.33-39.93-35.52-84.83-56.18-139.03-57.47ZM228.02,130.84c-7.31-8.01-14.81-16.24-22.96-25.17-26.83,29.74-43,63.03-43.36,103.52h32.65c4-14.63,6.35-29.2,12.04-42.32,5.7-13.14,14.74-24.83,21.63-36.03ZM236.36,121.99c13.72-7.9,25.7-16.51,38.97-21.96,13.2-5.42,27.7-7.67,41.65-11.31v-33.24c-40.53,1.56-74.77,16.08-102.89,42.27,8.01,8.72,15.54,16.92,22.27,24.25ZM483.1,208.88c-2.13-39.95-16.21-73.86-43.5-101.7-8.38,8.47-16.01,16.18-22.81,23.06,7.36,12.01,16.32,23.49,21.8,36.43,5.55,13.11,7.68,27.67,11.46,42.2h33.05ZM483.01,219.08h-33.81c-5.16,17.9-10.28,34.96-14.77,52.18-.58,2.22,1.77,5.54,3.41,7.92,2.37,3.44,5.31,6.48,7.69,9.3-9.02,6.96-16.52,12.75-24.42,18.84,6.01,6.55,11.14,12.14,16.9,18.43,28.17-30.17,42.99-65.08,45-106.67ZM226.51,343.98c27.88,21.56,57.57,31.54,91.33,32.89,0-10.37-.26-19.79.11-29.19.2-4.99-1.7-6.65-6.43-7.06-20.06-1.73-38.18-8.97-54.41-20.69-4.21-3.04-7.13-2.96-10.37.79-6.47,7.49-12.98,14.93-20.23,23.26ZM317.83,99.3c-28.91,1.97-52.82,11.54-73.62,30.63,8.16,7.79,15.67,14.95,23.55,22.47,14-11.25,29.12-18.64,46.87-19.77,1.15-.07,3.01-2.68,3.06-4.15.28-9.38.14-18.78.14-29.18ZM326.75,97.8c0,11.97-.18,21.36.18,30.73.06,1.47,2.43,3.94,3.92,4.09,16.16,1.63,30.51,7.6,43.68,16.93,1.53,1.09,4.89,1.91,5.9,1.06,7.34-6.12,14.29-12.69,21.72-19.45-3.3-2.93-5.65-5.27-8.25-7.29q-10.67-8.32-18.5,2.54c-.41.56-1.22.83-2.29,1.52-5.27-5.13-9.79-10.28-4.08-20.15-14.29-3.37-27.44-6.47-42.28-9.98ZM346.26,57.64c-5.46,12.26-8.62,14.78-17.79,12.58,4.78-5.01,8.82-9.25,12.98-13.61-3.95-.38-8.74-.84-14.08-1.35v32.95c18.73,5.15,36.77,10.12,54.07,14.88-.6-10.49-5.06-21.47,3.44-31.88,1.66,1.46,2.99,3.45,3.83,3.26,6.98-1.61,9.84,2.93,13.46,7.53,1.82,2.3,6,2.75,9.11,4.03.33-.93.67-1.87,1-2.8-20.04-13-41.56-22.34-66.02-25.59ZM411.48,146.69c-7.36,8.85-13.35,16.05-20.65,24.83,3.36,1.3,7.03,3.36,10.95,4.11,7.49,1.45,9.59,4.07,6.97,8.29,4.49,1.32,9.43,2.3,13.9,4.32,1.72.78,3.86,4.67,3.26,5.85-2.27,4.48-5.59,8.44-8.52,12.59-.62-.25-1.23-.49-1.85-.74v-9.14c-8.3,3.21-9.6,10.9-11.62,17.82-.73,2.52.53,5.62.89,8.45,2.98-.43,6.36-.11,8.88-1.43,7.92-4.15,13.97-12.19,25.12-10.61-.26-23.23-6.89-43.41-20.58-61.13-1.71-2.22-5.64-2.72-6.74-3.21ZM206.89,199.7c5.06-1.4,9.34-1.96,12.99-3.78,2.9-1.45,6.59-4.1,7.19-6.83,1.78-8.01,5.57-13.76,13.41-14.33,10.1-.73,16.59-5.02,18.75-13.12-7.96-8.28-15.42-16.05-23.24-24.17-15.49,17.26-26.28,37.1-29.11,62.24ZM327.3,377.51c10.34-1.46,19.55-2.77,27.93-3.95.54-7.87,1.15-14.63,1.4-21.39.15-3.99.04-8.05-.64-11.96-.22-1.25-2.87-3.18-4.09-2.97-8.17,1.42-16.26,3.34-24.61,5.15v35.12ZM320.13,332.26c-2.3-4.41-2.97-7.99-5.08-9.32-6.79-4.29-10.56-10.03-11.56-17.89-.2-1.6-.76-4.05-1.82-4.5-5.97-2.5-12.15-4.5-19.79-7.22,3.04,13.89-11.96,12.82-15.15,22.25,15.42,9.9,32.19,15.3,53.4,16.68ZM371.12,158.06c-12.19-9.46-26.45-15.62-44.19-16.39,0,4.39.4,8.18-.09,11.85-.81,6.03,1.95,7.96,7.48,8.7,5.4.72,10.66,2.53,16.82,4.07-1.83,2.77-2.86,4.34-4.32,6.55,3.97.25,8.53,1.95,10.47.39,5-4.02,8.84-9.49,13.84-15.17ZM232.54,282.56c-12.85-15.02-24.48-28.83-36.38-42.4-4.37-4.99-7.73-10.01-6.92-17.05.16-1.36-1.16-2.89-1.8-4.35-1.21,1.06-3.22,1.96-3.49,3.22-1.6,7.69-2.9,15.44-4.11,23.21-.76,4.92,1.18,7.06,6.54,7.86,6.41.95,12.67,3.36,18.74,5.8,1.31.52,2.71,4.72,1.98,5.73-3.71,5.18.02,6.93,3.52,8.55,6.61,3.06,13.37,5.78,21.91,9.43ZM275.07,158.43c7.73,9.71,14.2,12.63,28.45,13.34-1.36-7.9,2.45-12.12,9.66-14.6,1.87-.64,3.68-3.46,4.18-5.59.71-3.01.18-6.32.18-9.87-16.61,1.14-30.18,6.63-42.48,16.72ZM378.74,264.3c-8.04,2.29-4.92-8.96-10.48-9.47-3.2,2.22-3.31,9.84-9.81,5.63,6.17-9.6-5.52-8.83-7.18-15.48-7.72,6.63-14.31,12.3-22.67,19.48,9.19-2.18,16.23-3.86,23.6-5.61,1.1,9.14,8.71,10.2,14.26,13.48.81.48,3.59-.44,3.76-1.13,1.19-4.9,4.26-2.9,7.2-2.47,5.79.85,11.63,1.38,17.98,2.1v-10.34c-7.05,3.62-12.37,2.21-17.4-5.94.32,4.23.49,6.52.73,9.75ZM316.49,252.18c-9.09,11.62-17.95,22.95-26.82,34.28.19.76.38,1.53.58,2.29,4.76,0,11.2,1.96,13.93-.4,6.26-5.4,10.7-12.89,15.78-19.42-.99-4.77-2.14-10.34-3.47-16.75ZM328.34,332.94c6.74-1.31,13.48-2.32,19.98-4.18,1.1-.31,2.08-5.95,1.56-6.22-3.46-1.85-8.73-5.1-10.81-3.79-4.57,2.88-14.84,2.06-10.73,14.18ZM408,123.97c4.17-3.64,4.75-12.01,1.53-16.13-3.29-4.21-12.13-3.13-18.32,2.57,5.66,4.58,11.26,9.1,16.79,13.56ZM385.83,246.08c7.02.5,13.17.94,20.76,1.48-2.99-4.44-5.49-8.16-8.36-12.41-2.17,3.01-3.55,4.95-5.18,7.21-1.35-1.71-2.28-2.89-4.03-5.12-1.28,3.54-2.15,5.98-3.19,8.85ZM393.15,163.48c3.28-6.37,6.3-12.24,9.32-18.11-.61-.38-1.23-.76-1.84-1.14-3.35,3.07-6.76,6.08-10.01,9.25-1.58,1.54-2.88,3.38-4.67,5.52,2.28,1.41,4.11,2.55,7.2,4.47ZM430.89,85.69c3.98,2.44,6.58,4.04,9.18,5.63,1.19-3.88,2.39-7.75,4.25-13.79-5.2,3.16-8.34,5.07-13.43,8.15ZM396.08,276.39c1.48,11.15,10,23.19,13.99,21.78-4.37-6.81-8.79-13.68-13.99-21.78Z"/>
  <path d="M239.53,525.18c22.57-17.29,44.58-34.14,66.72-51.1-6.99-2.97-14.68-1.88-21.36,1.23-12.67,5.89-24.75,13.07-37.1,19.64-14.16,7.54-27.7,16.85-42.67,22.1-28.77,10.09-66.2-3.82-82.76-27.65,10.53,2.29,21.95,5.85,33.6,7.09,22.33,2.39,42.68-5.87,62.85-14.11,10.4-4.25,20.82-8.46,31.24-12.67,22.19-8.97,44.71-9.48,67.59-2.8,2.97.87,6.6,1.25,9.47.37,24.15-7.46,47.84-6.65,71.16,3.17,9.18,3.87,18.33,7.81,27.45,11.81,31.42,13.77,63.21,21.78,96.74,6.27-16.96,20.33-37.94,31.9-64.8,31.69-15.7-.12-29.34-6.41-42.43-14.03-10.59-6.17-20.66-13.24-31.11-19.65-13.8-8.46-28.03-15.64-45.37-12.3,21.94,17.03,43.57,33.81,65.84,51.1-3.61,4.18-6.51,7.54-9.29,10.76-13.85-12.31-26.98-24.46-40.65-35.95-8-6.72-17.05-12.18-25.29-18.63-4.68-3.66-8.89-3.32-13.08,0-18.99,15.05-37.98,30.11-56.74,45.46-3.28,2.69-5.42,6.77-8.71,11.01-4.54-5.16-7.45-8.46-11.29-12.82Z"/>
  <path d="M68.23,433.67c39.49,24.13,86.41,25.23,125.93,21.1-20.59-9.19-33.79-23.74-41.06-43.46-3-8.12-5.25-16.53-7.71-24.84-3.09-10.42-6.04-20.88-9.32-32.24,17.16,13.61,34.43,26.1,42.94,46.83,3.49,8.5,7.59,16.77,10.66,25.41,6.1,17.19,18.44,27.02,35.51,31.76,4.82,1.34,9.61,2.8,16.25,4.75-35.88,8.62-68.53,24.18-105.13,17.01-29.4-5.76-52.08-21-68.07-46.32Z"/>
  <path d="M404.07,462.48c3.93-.9,5.9-1.39,7.88-1.8,22.27-4.69,37.68-17.17,45.14-39.09,8.47-24.86,23.55-45.13,43.88-61.59,2.34-1.89,4.66-3.8,7.98-6.5-6.33,20.49-11.7,39.83-18.32,58.73-6.8,19.43-20,33.59-39.59,41.88,30.07,5.68,86.84,4.54,125.93-21.33-.91,2.01-1.19,3.09-1.8,3.94-27.77,39.18-66.46,50.83-111.85,42.46-19.38-3.57-38.11-10.62-59.26-16.69Z"/>
  <path d="M153.01,441.95c-61.38-1.03-121.7-37.13-129.2-90.48,26.27,32.85,54.63,41.71,91,61.27-3.15-11.73-7-24.2-9.7-36.91-1.41-6.65-.7-13.73-1.15-20.6-.87-13.32-1.89-26.63-2.82-39.49,10.17,9.65,17.81,22.24,20.85,36.95,6.4,30.92,10.27,62.57,31.01,89.25Z"/>
  <path d="M542.93,316.08c-1.44,21.08-2.12,42.45-4.66,63.6-1.36,11.35-5.92,22.32-9.08,33.64,31.47-18.24,68.19-29.42,90.95-62.55-6.52,50-57.99,89.25-128.69,90.8,19.48-24.61,24.59-53.87,29.94-83.04,2.74-14.91,8.84-28.22,18.87-39.66.84-.96,1.71-1.91,2.65-2.76.27-.24.86-.14.02-.03Z"/>
  <path d="M68.25,340.89c-3.13-23.85,2.78-45.87,10.14-67.85,2.58-7.72,2.87-16.2,4.23-24.45,6.07,8.61,8.5,18.99,8.84,29.54.41,12.96-.91,25.96-1.03,38.95-.21,21.85-.06,43.69-.06,66.78-31.8-19.34-64.06-36.65-80.17-71.78-7.18-15.66-11.37-32.19-6.73-49.99,10.29,35.54,38.98,55.76,64.77,78.8Z"/>
  <path d="M561.28,248.84c2.18,10.2,3.62,19.76,6.31,28.96,6.01,20.63,11.74,41.21,7.19,65.38,26.84-24.96,55.66-45.17,65.81-82.36,3.99,11.73,2.13,21.96-.05,32.16-4.54,21.25-14.96,39.31-31.82,52.81-17.25,13.81-35.55,26.31-54.16,38.65,4.64-26.35.74-51.68-1.69-77.05-1.57-16.37-1.47-32.68,4.04-48.48,1.21-3.48,2.93-6.77,4.39-10.07Z"/>
  <path d="M558.65,181.18c14.05,27.72,36.12,49.58,41.92,80.58,13.33-28.27,37.43-51.9,34.11-87.24,6.86,8.06,8.82,17.38,9.55,27.04,1.56,20.82-3.56,40.22-14.5,57.75-6.87,11.01-15.14,21.16-23.13,31.43-5.12,6.57-10.86,12.66-17.01,19.75-1.79-30.89-15.96-57.46-25.67-85.44-4.78-13.77-6.27-28.01-5.27-43.89Z"/>
  <path d="M8.99,175.14c-1.91,16.75,4.06,31.04,11.29,44.92,7.4,14.23,15.23,28.24,23.84,42.55,5.22-31.09,27.07-53.35,41.19-80.79,1.42,15.9-.87,30.5-5.72,44.69-4.05,11.83-9.15,23.3-12.98,35.19-4.96,15.41-9.12,31.07-13.52,46.26-21.15-23.19-44.42-46.64-51.12-80.72-2.91-14.78-2.97-29.43,2.6-43.69,1.14-2.93,2.95-5.61,4.45-8.41Z"/>
  <path d="M39.87,230.81c-8.43-23.87-17.83-45.76-23.7-68.55-5.38-20.9-.9-41.66,10.96-60.24,1.69-2.65,3.85-5.01,6.33-7.2-7.29,31.23,5.84,59.55,11.68,89.38,12.02-27.46,38.32-41.1,58.36-61.05-4.43,15.44-10.31,30.33-19.79,43.5-8.21,11.41-17.44,22.08-25.46,33.61-6.24,8.96-11.33,18.72-18.37,30.55Z"/>
  <path d="M599.39,184.94c5.8-30.16,19.85-58.75,10.67-90.1.64-.37,1.29-.74,1.93-1.11,4.12,7.28,9.05,14.22,12.2,21.9,9.81,23.93,5.84,47.78-2.62,71.05-5.13,14.12-11.67,27.73-18.21,43.07-11.15-26.72-31.62-45.2-46.25-67.71-7.73-11.9-12.34-25.82-17.27-39.36,20.46,20.37,47.75,33.75,59.55,62.26Z"/>
  <path d="M593.59,151.14c-10.42-8.48-20.82-17.41-31.71-25.68-19.03-14.44-36.16-30.22-42.66-54.41-.58-2.16-1.12-4.32-1.33-5.12,19.71,15.42,40.08,31.36,60.47,47.32,5.68-19.93.81-50.72-12.06-76.39,16.32,5.11,31.13,25.48,33.52,45.53,2.55,21.41-.76,42.29-5.06,63.12-.46,2.24-.93,4.49-1.17,5.63Z"/>
  <path d="M48.56,151.92c-1.48-21.56-4.34-43.13-4.07-64.67.3-23.22,13.04-40.04,33.91-50.84-15.49,23.82-16.64,49.82-13.18,79.16,17.85-22.48,46-29.09,61.16-51.82-3.67,20.04-12.38,37.05-28.72,49.66-9.92,7.65-19.95,15.16-29.66,23.08-5.87,4.78-11.22,10.21-16.8,15.35-.89.03-1.77.06-2.66.09Z"/>
  <path d="M582.08,574.21c13.93-1.35,14.01-1.39,19.46,9.38,5.16,10.2,10.14,20.49,16.48,30.51v-39.75h14.03v67.82c-11.75,3.57-14.09,2.63-19.53-7.93-5-9.71-10.03-19.41-16.72-28.9v36.65c-11.78,4.18-14.01,2.75-14.02-8.62-.02-16.87-.09-33.73-.09-50.6,0-2.75.24-5.49.39-8.54Z"/>
  <path d="M181.08,609.42c-.61,4.29-.95,8.9-1.97,13.34-3.4,14.82-13.48,22.31-28.84,21.76-15.1-.55-24.28-8.25-26.18-23.62-1.05-8.48-1-17.34.16-25.8,1.97-14.41,12.06-22.54,26.35-22.81,15.19-.29,25.62,7.78,28.54,22.37.95,4.74,1.29,9.6,1.95,14.76ZM165.69,609.27c-1.01-5.48-1.68-10.79-3.02-15.93-1.49-5.71-5.88-8.17-11.54-8.13-5.46.04-10.14,2.78-10.53,8.15-.74,10.25-.7,20.63.06,30.88.4,5.4,5,8.01,10.51,8.13,5.45.11,9.59-2.21,11.17-7.49,1.51-5.08,2.27-10.38,3.37-15.59Z"/>
  <path d="M395.31,643.12h-14.88v-68.9h14.22v26.68h20.77v-26.58h14.72v68.89c-4.45.21-8.92.42-14.43.69v-29.67h-20.4v28.89Z"/>
  <path d="M265.37,586.35v14.89h24.05v12.68h-23.77v16.67h28.41v12.48h-43.11v-68.52h43.06v11.79h-28.63Z"/>
  <path d="M189.2,621.83c6.76-.09,13.32-2.84,16.34,6.71.75,2.36,7.84,3.52,12.05,3.62,1.96.05,5.47-3.66,5.64-5.87.2-2.58-1.8-6.58-4.05-7.85-4.58-2.58-10.02-3.61-15-5.53-10.51-4.04-14.99-10.85-14.05-21.03.96-10.47,6.92-16.73,17.95-18.85,17.45-3.36,29.61,5.43,29.41,22.11-6.31-.61-14.01,4.23-16.76-6.91-.44-1.77-6.1-3.29-9.18-3.03-2.28.19-5.98,3.42-6.04,5.39-.09,2.98,1.65,7.18,4.02,8.81,3.63,2.5,8.46,3.27,12.79,4.74,13.59,4.63,18.57,11.62,16.72,23.5-1.6,10.26-10.15,16.56-23.14,16.87-3.31.08-6.67.02-9.93-.5-11.73-1.85-17.22-8.95-16.76-22.19Z"/>
  <path d="M518.51,574.3h15.19c0,3.76-.01,7.71,0,11.66.05,11.76-.16,23.54.26,35.29.29,8.09,3.92,11.73,10.4,11.51,7.14-.25,9.71-4.81,9.84-11.21.24-12.78.36-25.56.51-38.34.03-2.77,0-5.55,0-8.89h13.79c0,18.06.95,36.15-.36,54.08-.79,10.81-10.97,16.37-24.28,16.29-13.66-.09-21.92-5.36-24.04-16.67-1.3-6.95-1.13-14.22-1.26-21.35-.19-10.47-.05-20.94-.05-32.35Z"/>
  <path d="M487.27,643.18h-43.51v-68.86h43.1v11.9h-28.45v15.25c4.77,0,9.76.04,14.75,0,10.6-.09,10.81.16,8.65,12.4h-23.57v16.79h29.03v12.53Z"/>
  <path d="M63.87,599.58c-7.46.55-14.44,2.6-16.74-7.88-.57-2.59-6.23-5.69-9.47-5.6-3.2.09-7.98,3.26-9.14,6.22-4.33,11.02-4.4,22.66.49,33.55,1.31,2.92,6.05,5.72,9.37,5.91,2.96.17,8.45-2.96,8.82-5.29,1.81-11.13,9.4-8.01,16.01-8.07,1.71,12.95-6.25,23.88-18.42,25.76-19.04,2.94-30.53-4.49-33.3-23.51-1.37-9.38-.87-19.48,1.04-28.79,2.86-13.97,15.92-21.24,30.62-18.92,13.52,2.13,21.05,11.49,20.74,26.63Z"/>
  <path d="M507.77,9.71c41.44,16.08,59.55,40.32,60.61,81.02-32.39-16.68-55.12-46.83-60.61-81.02Z"/>
  <path d="M137.3,10.04c-10.91,34.8-25.3,65.75-61.12,79.4.17-38.36,19.69-65.13,61.12-79.4Z"/>
  <path d="M354.34,643.09c-2.53.32-3.76.58-4.99.62q-10.25.33-10.27-9.67c0-15.31,0-30.61,0-46.7-5.73-.26-10.95-.5-16.68-.76v-12.17h48.84v11.94h-16.89v56.75Z"/>
  <path d="M90.15,631.32h26.91c2.93,11.51,2.41,12.24-8.11,12.3-9.44.05-18.87-.03-28.31.15-3.92.08-5.43-1.37-5.41-5.36.14-19.64.19-39.27.01-58.91-.04-4.49,1.75-5.91,5.89-5.62,2.74.19,5.5.04,9.01.04v57.4Z"/>
  <path d="M356.98,37.08c-8.88-4.17-17.75-8.33-27.31-12.82,14.76-11.55,24.2-3.87,27.31,12.82Z"/>
</svg>